<?xml version="1.0" encoding="UTF-8"?>
<svg version="1.1" xmlns="http://www.w3.org/2000/svg" width="224" height="224">
<path d="M0 0 C73.92 0 147.84 0 224 0 C224 73.92 224 147.84 224 224 C150.08 224 76.16 224 0 224 C0 150.08 0 76.16 0 0 Z " fill="#010101" transform="translate(0,0)"/>
<path d="M0 0 C0.83265381 0.00523682 1.66530762 0.01047363 2.52319336 0.01586914 C3.42231445 0.0190918 4.32143555 0.02231445 5.24780273 0.02563477 C6.66609375 0.03820313 6.66609375 0.03820313 8.11303711 0.05102539 C9.06243164 0.05553711 10.01182617 0.06004883 10.98999023 0.06469727 C13.34356776 0.07652429 15.69702188 0.09300514 18.05053711 0.11352539 C15.72206739 7.45360214 12.90711052 14.51617773 9.92553711 21.61352539 C9.47049805 22.70922852 9.01545898 23.80493164 8.54663086 24.93383789 C5.18123407 32.98282843 5.18123407 32.98282843 4.05053711 34.11352539 C2.63483588 34.2000415 1.21494211 34.22057443 -0.20336914 34.21118164 C-1.05737305 34.20795898 -1.91137695 34.20473633 -2.79125977 34.20141602 C-3.6890918 34.19303711 -4.58692383 34.1846582 -5.51196289 34.17602539 C-6.41366211 34.17151367 -7.31536133 34.16700195 -8.24438477 34.16235352 C-10.47947603 34.15052764 -12.71443726 34.13404759 -14.94946289 34.11352539 C-14.27169256 30.0181843 -13.00042656 26.3935544 -11.48071289 22.53540039 C-11.24034302 21.92335754 -10.99997314 21.3113147 -10.75231934 20.6807251 C-10.24662975 19.39581719 -9.73890433 18.11170883 -9.22924805 16.82836914 C-8.44716397 14.85773274 -7.67246545 12.88430868 -6.89868164 10.91040039 C-2.65672047 0.15471196 -2.65672047 0.15471196 0 0 Z " fill="#F7F7F7" transform="translate(148.949462890625,53.886474609375)"/>
<path d="M0 0 C6.6 0 13.2 0 20 0 C23.28418653 6.56837306 26.09614805 12.99633627 28.75 19.8125 C29.16121094 20.84826172 29.57242188 21.88402344 29.99609375 22.95117188 C30.38410156 23.94310547 30.77210937 24.93503906 31.171875 25.95703125 C31.5234668 26.85397705 31.87505859 27.75092285 32.23730469 28.67504883 C33 31 33 31 33 34 C26.73 34 20.46 34 14 34 C10.46495201 27.37178502 7.53789994 20.59224275 4.75 13.625 C4.39679687 12.74489258 4.04359375 11.86478516 3.6796875 10.95800781 C2.22802035 7.29367358 0.95896892 3.83587568 0 0 Z " fill="#F7F7F7" transform="translate(56,54)"/>
<path d="M0 0 C3.14002308 1.57001154 3.64036398 4.70959862 4.8203125 7.84375 C5.08383514 8.52804077 5.34735779 9.21233154 5.61886597 9.9173584 C6.17510989 11.36537156 6.72801026 12.81467285 7.27783203 14.26513672 C8.12243141 16.49322395 8.97626233 18.71758812 9.83203125 20.94140625 C10.37033122 22.34614753 10.90810948 23.75108886 11.4453125 25.15625 C11.70152374 25.82603882 11.95773499 26.49582764 12.22171021 27.18591309 C14 31.881548 14 31.881548 14 33 C5.09 33 -3.82 33 -13 33 C-10.375 26 -10.375 26 -9.49682617 23.66186523 C-8.08957392 19.91442288 -6.68910144 16.16465693 -5.30078125 12.41015625 C-4.89496826 11.31670898 -4.89496826 11.31670898 -4.48095703 10.20117188 C-3.95760122 8.79052668 -3.43639341 7.37908245 -2.91748047 5.96679688 C-1.11243241 1.11243241 -1.11243241 1.11243241 0 0 Z " fill="#F7F7F7" transform="translate(111,55)"/>
<path d="M0 0 C6.6 0 13.2 0 20 0 C20 0.66 20 1.32 20 2 C15.38 2 10.76 2 6 2 C6.33 6.29 6.66 10.58 7 15 C9.31 15 11.62 15 14 15 C14.33 11.37 14.66 7.74 15 4 C16.32 4.33 17.64 4.66 19 5 C19.11638036 8.24969769 19.18730581 11.4988583 19.25 14.75 C19.28351563 15.67039062 19.31703125 16.59078125 19.3515625 17.5390625 C19.45078327 24.38529554 19.45078327 24.38529554 17.109375 27.578125 C13.18347564 30.22447198 9.67276741 30.68796002 5 30 C2 28 2 28 0 26 C0.3125 23.625 0.3125 23.625 1 21 C4 19 4 19 7 19 C7.33 19.99 7.66 20.98 8 22 C6.02 22.66 4.04 23.32 2 24 C2.66 24.99 3.32 25.98 4 27 C9.16006059 27.5454416 9.16006059 27.5454416 13.9375 26 C15.64300706 22.78963377 15.70434404 19.60700273 16 16 C15.34 16.33 14.68 16.66 14 17 C6.91428571 17.68571429 6.91428571 17.68571429 3.5 15.125 C1.38816468 10.72534308 1.66471122 6.79649232 2 2 C1.34 2 0.68 2 0 2 C0 1.34 0 0.68 0 0 Z " fill="#E9E9E9" transform="translate(154,101)"/>
<path d="M0 0 C6.27 0 12.54 0 19 0 C19 0.66 19 1.32 19 2 C17.68 2 16.36 2 15 2 C15.96776098 5.79547921 15.96776098 5.79547921 18 9 C18.43372673 12.20957777 18.27027568 13.59999199 16.4375 16.3125 C13.03434143 18.66853286 11.05796087 18.64073066 7 18 C3.54429357 15.50012726 2.19777883 14.09877127 1.4375 9.875 C2 7 2 7 3.625 5.125 C6.56637697 3.73171617 8.78333296 3.78068179 12 4 C12 3.34 12 2.68 12 2 C8.04 2 4.08 2 0 2 C0 1.34 0 0.68 0 0 Z " fill="#ECECEC" transform="translate(58,101)"/>
<path d="M0 0 C5.61 0 11.22 0 17 0 C17 0.66 17 1.32 17 2 C13.37 2 9.74 2 6 2 C6 2.66 6 3.32 6 4 C7.093125 3.938125 8.18625 3.87625 9.3125 3.8125 C13 4 13 4 14.71875 5.125 C16.57197706 7.8370396 16.29215369 9.94323564 16.1875 13.1875 C16.16042969 14.27417969 16.13335937 15.36085938 16.10546875 16.48046875 C16.07066406 17.31191406 16.03585938 18.14335938 16 19 C15.4121875 18.82210937 14.824375 18.64421875 14.21875 18.4609375 C11.79163226 17.81307713 11.79163226 17.81307713 8.5 18.625 C5 19 5 19 2.5625 17.5625 C2.046875 17.046875 1.53125 16.53125 1 16 C1.1875 13.6875 1.1875 13.6875 2 11 C4.5625 9.1875 4.5625 9.1875 7 8 C5.35 8 3.7 8 2 8 C2.33 6.02 2.66 4.04 3 2 C2.01 2 1.02 2 0 2 C0 1.34 0 0.68 0 0 Z " fill="#E6E6E6" transform="translate(176,101)"/>
<path d="M0 0 C5.94 0 11.88 0 18 0 C18 0.66 18 1.32 18 2 C14.04 2 10.08 2 6 2 C6 2.66 6 3.32 6 4 C7.8871875 3.87625 7.8871875 3.87625 9.8125 3.75 C11.95703125 3.609375 11.95703125 3.609375 14 4 C16.35795805 6.23163887 16.95358002 7.55684393 17.29296875 10.796875 C17.25816406 11.77140625 17.22335938 12.7459375 17.1875 13.75 C17.16042969 14.73484375 17.13335937 15.7196875 17.10546875 16.734375 C17.07066406 17.48203125 17.03585938 18.2296875 17 19 C16.26136719 18.83371094 15.52273437 18.66742188 14.76171875 18.49609375 C12.31487345 18.05656143 10.27914748 17.9527652 7.8125 18.0625 C4 18 4 18 2 16 C2.125 13.5625 2.125 13.5625 3 11 C5.0625 9.1875 5.0625 9.1875 7 8 C5.68 8 4.36 8 3 8 C3.33 6.02 3.66 4.04 4 2 C2.68 2 1.36 2 0 2 C0 1.34 0 0.68 0 0 Z " fill="#E2E2E2" transform="translate(106,101)"/>
<path d="M0 0 C8.91 0 17.82 0 27 0 C27 0.66 27 1.32 27 2 C25.02 2 23.04 2 21 2 C21.845625 2.845625 22.69125 3.69125 23.5625 4.5625 C25.81213749 7.27360159 25.99566187 7.87419428 26.125 11.625 C24.8203037 15.53908891 23.4254314 16.80421064 20 19 C19.01 18.34 18.02 17.68 17 17 C17 16.34 17 15.68 17 15 C18.98 14.01 20.96 13.02 23 12 C23 10.35 23 8.7 23 7 C20.62694422 6.58219121 20.62694422 6.58219121 18 7 C16.1375562 9.40858714 16.1375562 9.40858714 15 12 C13.68 11.67 12.36 11.34 11 11 C11 10.01 11 9.02 11 8 C9.35 8.33 7.7 8.66 6 9 C5.58823246 12.60296594 5.8464147 13.78402067 8 16.8125 C8.99 17.8953125 8.99 17.8953125 10 19 C6.10164983 17.70054994 3.39607846 16.40980397 1 13 C1.0625 9.375 1.0625 9.375 2 6 C5.48935471 3.67376352 6.90482598 3.74927506 11 4 C11.721875 4.185625 12.44375 4.37125 13.1875 4.5625 C15.2175204 5.22193706 15.2175204 5.22193706 18 4 C18 3.34 18 2.68 18 2 C12.06 2 6.12 2 0 2 C0 1.34 0 0.68 0 0 Z " fill="#E9E9E9" transform="translate(78,101)"/>
<path d="M0 0 C9.24 0 18.48 0 28 0 C28 0.66 28 1.32 28 2 C27.34 2 26.68 2 26 2 C26.04640625 2.90363281 26.0928125 3.80726562 26.140625 4.73828125 C26.19476563 6.50751953 26.19476563 6.50751953 26.25 8.3125 C26.29640625 9.48425781 26.3428125 10.65601562 26.390625 11.86328125 C26 15 26 15 24.5 16.90625 C20.93872716 18.46430687 17.55731629 18.31867079 13.75 18.1875 C13.00492188 18.17396484 12.25984375 18.16042969 11.4921875 18.14648438 C9.66114584 18.11127204 7.83047831 18.05746851 6 18 C5.67 17.34 5.34 16.68 5 16 C6.423125 15.9071875 6.423125 15.9071875 7.875 15.8125 C8.90625 15.544375 9.9375 15.27625 11 15 C12.45291273 12.53744315 12.45291273 12.53744315 13 10 C14.32 10.33 15.64 10.66 17 11 C16.67 12.65 16.34 14.3 16 16 C17.98 15.34 19.96 14.68 22 14 C22.33 10.04 22.66 6.08 23 2 C15.41 2 7.82 2 0 2 C0 1.34 0 0.68 0 0 Z " fill="#F0F0F0" transform="translate(29,101)"/>
<path d="M0 0 C4.62 0 9.24 0 14 0 C11.05357143 10.17857143 11.05357143 10.17857143 9 14 C7.68 14 6.36 14 5 14 C4.16235732 12.04350603 3.33000941 10.08474444 2.5 8.125 C2.0359375 7.03445312 1.571875 5.94390625 1.09375 4.8203125 C0 2 0 2 0 0 Z " fill="#F5F5F5" transform="translate(122,130)"/>
<path d="M0 0 C4.62 0 9.24 0 14 0 C10.85714286 9.57142857 10.85714286 9.57142857 9 14 C7.68 14 6.36 14 5 14 C4.16235732 12.04350603 3.33000941 10.08474444 2.5 8.125 C2.0359375 7.03445312 1.571875 5.94390625 1.09375 4.8203125 C0 2 0 2 0 0 Z " fill="#F8F8F8" transform="translate(87,130)"/>
<path d="M0 0 C0.48 7.2 0.48 7.2 -1.5 10.5 C-5.14008723 12.68405234 -7.79654733 12.28023018 -12 12 C-12.66 10.68 -13.32 9.36 -14 8 C-13.175 7.54625 -12.35 7.0925 -11.5 6.625 C-10.2625 5.820625 -10.2625 5.820625 -9 5 C-9 4.34 -9 3.68 -9 3 C-9.66 2.67 -10.32 2.34 -11 2 C-8.73495985 -0.26504015 -3.2241964 0 0 0 Z " fill="#101010" transform="translate(170,117)"/>
<path d="M0 0 C1.32 0.33 2.64 0.66 4 1 C4.66 0.67 5.32 0.34 6 0 C8.875 -0.375 8.875 -0.375 12 0 C14.4375 2 14.4375 2 16 5 C16.23937191 8.05345139 15.8024415 9.94069178 15 13 C12.9375 14.5 12.9375 14.5 11 15 C11 11 11 11 12 9 C12.039992 7.00039988 12.04346799 4.99952758 12 3 C9.69 3 7.38 3 5 3 C4.34 6.96 3.68 10.92 3 15 C2.01 14.67 1.02 14.34 0 14 C0 9.38 0 4.76 0 0 Z " fill="#E5E5E5" transform="translate(127,105)"/>
<path d="M0 0 C4.29 0 8.58 0 13 0 C13 0.66 13 1.32 13 2 C13.66 2 14.32 2 15 2 C15.33 1.34 15.66 0.68 16 0 C17.98 0 19.96 0 22 0 C22 1.65 22 3.3 22 5 C17.66666667 5 13.33333333 5 9 5 C8.34 4.01 7.68 3.02 7 2 C6.67 2.99 6.34 3.98 6 5 C3.69 5 1.38 5 -1 5 C-0.67 3.35 -0.34 1.7 0 0 Z " fill="#A0A0A0" transform="translate(98,164)"/>
<path d="M0 0 C0.763125 0.20625 1.52625 0.4125 2.3125 0.625 C3.0625 2.875 3.0625 2.875 3.3125 5.625 C1.6875 7.9375 1.6875 7.9375 -0.6875 9.625 C-3.375 9.9375 -3.375 9.9375 -5.6875 9.625 C-6.0175 9.295 -6.3475 8.965 -6.6875 8.625 C-6.4375 5.1875 -6.4375 5.1875 -5.6875 1.625 C-2.6875 -0.375 -2.6875 -0.375 0 0 Z " fill="#070707" transform="translate(69.6875,107.375)"/>
<path d="M0 0 C5.94 0 11.88 0 18 0 C18 0.66 18 1.32 18 2 C14.04 2 10.08 2 6 2 C6 2.66 6 3.32 6 4 C6.61875 4.12375 7.2375 4.2475 7.875 4.375 C10 5 10 5 12 7 C7.545 7.495 7.545 7.495 3 8 C3.33 6.02 3.66 4.04 4 2 C2.68 2 1.36 2 0 2 C0 1.34 0 0.68 0 0 Z " fill="#DFDFDF" transform="translate(106,101)"/>
<path d="M0 0 C0.99 0.33 1.98 0.66 3 1 C2.67 1.556875 2.34 2.11375 2 2.6875 C0.8045712 5.4519291 0.56306435 7.01427305 1 10 C2.89816542 12.7905817 2.89816542 12.7905817 5 15 C1.10164983 13.70054994 -1.60392154 12.40980397 -4 9 C-3.9375 5.375 -3.9375 5.375 -3 2 C-2.01 1.34 -1.02 0.68 0 0 Z " fill="#DCDCDC" transform="translate(83,105)"/>
<path d="M0 0 C-1.28965176 1.37562854 -2.62689293 2.70766393 -4 4 C-4.66 4 -5.32 4 -6 4 C-6.25015873 7.41642759 -6.25015873 7.41642759 -6 11 C-5.01 11.66 -4.02 12.32 -3 13 C-3.99 13.495 -3.99 13.495 -5 14 C-9.84061393 9.88547816 -9.84061393 9.88547816 -10.5625 5.875 C-10 3 -10 3 -8.375 1.125 C-5.43362303 -0.26828383 -3.21666704 -0.21931821 0 0 Z " fill="#D3D3D3" transform="translate(70,105)"/>
<path d="M0 0 C2.5625 2 2.5625 2 5 5 C5.38023211 8.10720929 4.86952419 9.87994261 4 13 C1.9375 14.5 1.9375 14.5 0 15 C0 11 0 11 1 9 C1.039992 7.00039988 1.04346799 4.99952758 1 3 C-0.32 2.34 -1.64 1.68 -3 1 C-2.01 0.67 -1.02 0.34 0 0 Z " fill="#C9C9C9" transform="translate(138,105)"/>
<path d="M0 0 C0.99 0 1.98 0 3 0 C3 4.95 3 9.9 3 15 C2.01 14.67 1.02 14.34 0 14 C0 9.38 0 4.76 0 0 Z " fill="#EDEDED" transform="translate(148,105)"/>
<path d="M0 0 C0.66 0 1.32 0 2 0 C2 0.66 2 1.32 2 2 C2.66 2 3.32 2 4 2 C4.33 1.34 4.66 0.68 5 0 C6.98 0 8.96 0 11 0 C11 1.65 11 3.3 11 5 C8 5 5 5 2 5 C2 4.34 2 3.68 2 3 C1.34 3 0.68 3 0 3 C0 2.01 0 1.02 0 0 Z " fill="#A0A0A0" transform="translate(153,164)"/>
<path d="M0 0 C0.33 0.99 0.66 1.98 1 3 C-0.98 3.66 -2.96 4.32 -5 5 C-3.29107501 8.31460705 -3.29107501 8.31460705 0.125 8.6875 C1.07375 8.790625 2.0225 8.89375 3 9 C2.01 9.66 1.02 10.32 0 11 C-3.06630664 10.1025444 -4.73038808 9.26961192 -7 7 C-6.8125 4.5 -6.8125 4.5 -6 2 C-3 0 -3 0 0 0 Z " fill="#D2D2D2" transform="translate(161,120)"/>
<path d="M0 0 C0.33 1.65 0.66 3.3 1 5 C-0.093125 5.309375 -1.18625 5.61875 -2.3125 5.9375 C-4.55407994 6.58337897 -6.7869351 7.2623117 -9 8 C-8.6875 5.125 -8.6875 5.125 -8 2 C-4.77208445 -0.1519437 -3.71599191 -0.20086443 0 0 Z " fill="#797979" transform="translate(174,164)"/>
<path d="M0 0 C0.66 0 1.32 0 2 0 C2 0.99 2 1.98 2 3 C3.98 3 5.96 3 8 3 C8 4.98 8 6.96 8 9 C6.68 8.67 5.36 8.34 4 8 C4 6.68 4 5.36 4 4 C3.34 4 2.68 4 2 4 C2 5.32 2 6.64 2 8 C1.34 8 0.68 8 0 8 C0 5.36 0 2.72 0 0 Z " fill="#9C9C9C" transform="translate(64,161)"/>
<path d="M0 0 C3.0625 0.1875 3.0625 0.1875 5.0625 2.1875 C2.35067788 4.79084924 1.17116187 5.18206691 -2.6875 5.375 C-3.76 5.313125 -4.8325 5.25125 -5.9375 5.1875 C-3.53665014 0.22574363 -3.53665014 0.22574363 0 0 Z " fill="#0F0F0F" transform="translate(114.9375,111.8125)"/>
<path d="M0 0 C0.66 0 1.32 0 2 0 C2.35882213 3.22939919 2.27258004 4.61209763 0.375 7.3125 C-2.60457419 9.42956587 -4.42236811 9.32523926 -8 9 C-6.8553125 7.88625 -6.8553125 7.88625 -5.6875 6.75 C-3.04428801 4.176446 -3.04428801 4.176446 -1.3125 1.6875 C-0.879375 1.130625 -0.44625 0.57375 0 0 Z " fill="#E5E5E5" transform="translate(74,110)"/>
<path d="M0 0 C0.99 0.33 1.98 0.66 3 1 C2.71125 1.515625 2.4225 2.03125 2.125 2.5625 C0.71219973 5.62356725 -0.1248517 8.74944918 -1 12 C-1.99 11.34 -2.98 10.68 -4 10 C-3.38461538 3.47692308 -3.38461538 3.47692308 -1.4375 1.0625 C-0.7259375 0.5365625 -0.7259375 0.5365625 0 0 Z " fill="#E1E1E1" transform="translate(35,105)"/>
<path d="M0 0 C5.61 0 11.22 0 17 0 C17 0.33 17 0.66 17 1 C13.04 1 9.08 1 5 1 C5 2.32 5 3.64 5 5 C5.99 5.33 6.98 5.66 8 6 C7.01 6.66 6.02 7.32 5 8 C4.01 7.67 3.02 7.34 2 7 C2.33 5.35 2.66 3.7 3 2 C2.01 2 1.02 2 0 2 C0 1.34 0 0.68 0 0 Z " fill="#EEEEEE" transform="translate(176,101)"/>
<path d="M0 0 C1.32 0.33 2.64 0.66 4 1 C3.6875 3.375 3.6875 3.375 3 6 C-0.6441774 8.4294516 -2.71241272 8.16179575 -7 8 C-7.33 7.34 -7.66 6.68 -8 6 C-6.576875 5.9071875 -6.576875 5.9071875 -5.125 5.8125 C-4.09375 5.544375 -3.0625 5.27625 -2 5 C-0.54708727 2.53744315 -0.54708727 2.53744315 0 0 Z " fill="#DBDBDB" transform="translate(42,111)"/>
<path d="M0 0 C-1.5625 2 -1.5625 2 -4 4 C-7.75 4.25 -7.75 4.25 -11 4 C-8.36255031 -1.84006718 -6.04918208 -1.00819701 0 0 Z " fill="#0D0D0D" transform="translate(189,113)"/>
<path d="M0 0 C0.66 0 1.32 0 2 0 C1.63076923 6.4 1.63076923 6.4 -1.5625 9.4375 C-2.7690625 10.2109375 -2.7690625 10.2109375 -4 11 C-4.99 10.34 -5.98 9.68 -7 9 C-7 8.34 -7 7.68 -7 7 C-5.5459375 6.38125 -5.5459375 6.38125 -4.0625 5.75 C-0.87739901 4.35100832 -0.87739901 4.35100832 -0.125 1.8125 C-0.08375 1.214375 -0.0425 0.61625 0 0 Z " fill="#DADADA" transform="translate(102,109)"/>
<path d="M0 0 C2.64 0 5.28 0 8 0 C8 0.66 8 1.32 8 2 C6.02 2 4.04 2 2 2 C2 2.66 2 3.32 2 4 C3.65 4 5.3 4 7 4 C7 4.33 7 4.66 7 5 C5.35 5 3.7 5 2 5 C2 6.32 2 7.64 2 9 C1.34 9 0.68 9 0 9 C0 6.03 0 3.06 0 0 Z " fill="#A6A6A6" transform="translate(88,161)"/>
<path d="M0 0 C2.64 0 5.28 0 8 0 C8 0.66 8 1.32 8 2 C6.02 2 4.04 2 2 2 C2 2.66 2 3.32 2 4 C3.65 4 5.3 4 7 4 C7 4.33 7 4.66 7 5 C5.35 5 3.7 5 2 5 C2 5.99 2 6.98 2 8 C1.34 8 0.68 8 0 8 C0 5.36 0 2.72 0 0 Z " fill="#A7A7A7" transform="translate(44,161)"/>
<path d="M0 0 C3.96 0 7.92 0 12 0 C12 0.33 12 0.66 12 1 C8.37 1 4.74 1 1 1 C1 1.66 1 2.32 1 3 C3.31 3 5.62 3 8 3 C7.67 3.99 7.34 4.98 7 6 C4.625 6.125 4.625 6.125 2 6 C1.34 5.34 0.68 4.68 0 4 C0 2.68 0 1.36 0 0 Z " fill="#D2D2D2" transform="translate(181,102)"/>
<path d="M0 0 C0.33 0 0.66 0 1 0 C1 2.64 1 5.28 1 8 C-0.65 8 -2.3 8 -4 8 C-3.67 6.35 -3.34 4.7 -3 3 C-2.01 3 -1.02 3 0 3 C0 2.01 0 1.02 0 0 Z " fill="#A0A0A0" transform="translate(129,161)"/>
<path d="M0 0 C-2.27963761 3.41945641 -3.32597111 3.56623263 -7 5 C-8.77277259 6.52007842 -8.77277259 6.52007842 -10 8 C-9.67372714 4.98197607 -9.38918764 3.40308719 -7.25 1.1875 C-4.62847443 -0.19608294 -2.92325122 -0.24360427 0 0 Z " fill="#DADADA" transform="translate(118,109)"/>
<path d="M0 0 C0.66 0 1.32 0 2 0 C2 0.99 2 1.98 2 3 C2.66 3 3.32 3 4 3 C4.33 4.65 4.66 6.3 5 8 C3.35 8 1.7 8 0 8 C0 5.36 0 2.72 0 0 Z " fill="#979797" transform="translate(148,161)"/>
<path d="M0 0 C0.99 0 1.98 0 3 0 C4.38226016 2.76452033 4.09525387 5.0461363 4.0625 8.125 C4.05347656 9.22070312 4.04445312 10.31640625 4.03515625 11.4453125 C4.02355469 12.28835937 4.01195312 13.13140625 4 14 C3.67 14 3.34 14 3 14 C2.92652344 13.04287109 2.92652344 13.04287109 2.8515625 12.06640625 C2.77679688 11.24011719 2.70203125 10.41382812 2.625 9.5625 C2.55539063 8.73878906 2.48578125 7.91507812 2.4140625 7.06640625 C2.27742187 6.38449219 2.14078125 5.70257813 2 5 C1.34 4.67 0.68 4.34 0 4 C0 2.68 0 1.36 0 0 Z " fill="#DBDBDB" transform="translate(188,106)"/>
<path d="M0 0 C1.32 0 2.64 0 4 0 C4 1.65 4 3.3 4 5 C2.35 5 0.7 5 -1 5 C-0.67 3.35 -0.34 1.7 0 0 Z " fill="#979797" transform="translate(54,164)"/>
<path d="M0 0 C2.375 0.625 2.375 0.625 5 2 C6.3125 5.125 6.3125 5.125 7 8 C6.34 8 5.68 8 5 8 C0 2.52380952 0 2.52380952 0 0 Z " fill="#BFBFBF" transform="translate(145,91)"/>
<path d="M0 0 C0.33 0.66 0.66 1.32 1 2 C-2.3125 2.6875 -2.3125 2.6875 -6 3 C-7.9375 1.5625 -7.9375 1.5625 -9 0 C-2.25 -1.125 -2.25 -1.125 0 0 Z " fill="#CDCDCD" transform="translate(187,117)"/>
<path d="M0 0 C1.98 0.495 1.98 0.495 4 1 C3.67 2.32 3.34 3.64 3 5 C1.68 5 0.36 5 -1 5 C-0.67 3.35 -0.34 1.7 0 0 Z " fill="#8A8A8A" transform="translate(74,164)"/>
<path d="M0 0 C1.98 0.495 1.98 0.495 4 1 C3.67 2.32 3.34 3.64 3 5 C1.68 5 0.36 5 -1 5 C-0.67 3.35 -0.34 1.7 0 0 Z " fill="#8A8A8A" transform="translate(98,164)"/>
<path d="M0 0 C0 1.65 0 3.3 0 5 C-1.98 5.99 -1.98 5.99 -4 7 C-4 3 -4 3 -2.5625 1.25 C-1 0 -1 0 0 0 Z " fill="#ECECEC" transform="translate(142,113)"/>
<path d="M0 0 C0.33 0.66 0.66 1.32 1 2 C0.06553465 4.03144641 -0.93224776 6.03533587 -2 8 C-2.66 8 -3.32 8 -4 8 C-3.6875 5.125 -3.6875 5.125 -3 2 C-2.01 1.34 -1.02 0.68 0 0 Z " fill="#AFAFAF" transform="translate(169,164)"/>
</svg>
